<?xml version="1.0" encoding="iso-8859-1"?>
<!-- Generator: Adobe Illustrator 19.0.0, SVG Export Plug-In . SVG Version: 6.00 Build 0)  -->
<svg version="1.1" id="Layer_1" xmlns="http://www.w3.org/2000/svg" xmlns:xlink="http://www.w3.org/1999/xlink" x="0px" y="0px"
	 viewBox="0 0 512 512" style="enable-background:new 0 0 512 512;" xml:space="preserve">
<g transform="translate(2 1)">
	<path style="fill:#FFFFFF;" d="M437.893,220.867c-33.28,0-59.733-26.453-59.733-59.733c0,33.28-26.453,59.733-59.733,59.733
		s-59.733-26.453-59.733-59.733c0,33.28-26.453,59.733-59.733,59.733s-59.733-26.453-59.733-59.733
		c0,33.28-26.453,59.733-59.733,59.733c-22.187,0-40.96-11.947-51.2-29.013v68.267c0.853-0.853,2.56-1.707,3.413-2.56l5.12-4.267
		c4.267-4.267,11.093-5.12,17.067-4.267c8.533,0.853,16.213,5.973,20.48,13.653c2.56,4.267,2.56,10.24,1.707,14.507
		c-0.853,5.12,0,11.093,3.413,14.507c1.707,2.56,3.413,5.12,4.267,8.533c1.707,6.827-0.853,14.507-3.413,20.48
		c-1.707,4.267-4.267,8.533-6.827,12.8c-4.267,5.973-4.267,13.653-0.853,19.627c2.56,6.827,3.413,14.507,0.853,21.333
		c-3.413,11.947-12.8,20.48-23.04,25.6c-1.707,0.853-4.267,1.707-5.973,2.56v48.64H78.64l-8.533,51.2H488.24V191.853
		C478.853,208.92,460.08,220.867,437.893,220.867L437.893,220.867z"/>
	<path style="fill:#324A5E;" d="M497.627,511H60.72l8.533-51.2H36.827v-64l5.973-1.707c1.707-0.853,3.413-0.853,4.267-1.707
		c5.973-2.56,15.36-9.387,18.773-20.48c1.707-5.12,0.853-11.093-0.853-15.36c-4.267-9.387-3.413-20.48,2.56-28.16
		c1.707-2.56,4.267-5.973,5.973-10.24c2.56-6.827,3.413-11.947,2.56-16.213c0-1.707-0.853-3.413-1.707-4.267
		c-5.12-5.973-6.827-14.507-5.12-22.187c0.853-3.413,0-6.827-0.853-8.533c-2.56-5.12-7.68-8.533-14.507-9.387
		c-1.707,0-6.827-0.853-9.387,1.707l-7.68,5.973c-0.853,0-1.707,0.853-1.707,1.707L19.76,278.04V161.133l16.213,26.453
		c9.387,15.36,25.6,24.747,43.52,24.747c28.16,0,51.2-23.04,51.2-51.2h17.067c0,28.16,23.04,51.2,51.2,51.2s51.2-23.04,51.2-51.2
		h17.067c0,28.16,23.04,51.2,51.2,51.2c28.16,0,51.2-23.04,51.2-51.2h17.067c0,28.16,23.04,51.2,51.2,51.2
		c17.92,0,34.133-9.387,43.52-24.747l16.213-26.453V511z M81.2,493.933h399.36V214.04c-11.947,9.387-26.453,15.36-42.667,15.36
		c-25.6,0-47.787-14.507-59.733-34.987c-11.947,21.333-34.133,34.987-59.733,34.987c-25.6,0-47.787-14.507-59.733-34.987
		C246.747,215.747,224.56,229.4,198.96,229.4s-47.787-14.507-59.733-34.987C127.28,215.747,105.093,229.4,79.493,229.4
		c-16.213,0-30.72-5.12-42.667-15.36v28.16c5.12-2.56,11.947-3.413,18.773-2.56c11.947,1.707,22.187,8.533,26.453,17.92
		c3.413,5.973,4.267,13.653,2.56,20.48c-0.853,2.56,0,5.12,1.707,7.68c3.413,3.413,5.12,7.68,5.973,11.947
		c1.707,7.68,0,16.213-3.413,25.6c-2.56,5.12-5.12,10.24-7.68,14.507c-1.707,2.56-2.56,7.68,0,11.093
		c3.413,8.533,4.267,18.773,1.707,27.307c-3.413,12.8-13.653,23.893-27.307,30.72c-0.853,0-0.853,0.853-1.707,0.853v34.987h35.84
		L81.2,493.933z"/>
	<path style="fill:#D0E8F9;" d="M139.227,101.4H23.173c-1.707,0-2.56-1.707-2.56-3.413L55.6,22.893
		c4.267-9.387,13.653-15.36,23.893-15.36h76.8L139.227,101.4L139.227,101.4z"/>
	<path style="fill:#324A5E;" d="M146.053,109.933H23.173c-3.413,0-6.827-1.707-8.533-4.267c-1.707-2.56-2.56-5.973-1.707-9.387
		l0.853-0.853l34.987-75.093C53.04,6.68,65.84-1,79.493-1h87.04L146.053,109.933z M32.56,92.867h99.84l13.653-76.8h-66.56
		c-6.827,0-13.653,4.267-16.213,10.24L32.56,92.867z"/>
	<polygon style="fill:#D0E8F9;" points="378.16,101.4 258.693,101.4 258.693,7.533 361.093,7.533 	"/>
	<path style="fill:#324A5E;" d="M388.4,109.933H250.16V-1h117.76L388.4,109.933z M267.227,92.867H367.92l-13.653-76.8h-87.04V92.867
		z"/>
	<path style="fill:#D0E8F9;" d="M198.96,220.867L198.96,220.867c-33.28,0-59.733-26.453-59.733-59.733V101.4h119.467v59.733
		C258.693,194.413,232.24,220.867,198.96,220.867L198.96,220.867z"/>
	<path style="fill:#324A5E;" d="M198.96,229.4c-37.547,0-68.267-30.72-68.267-68.267V92.867h136.533v68.267
		C267.227,198.68,236.507,229.4,198.96,229.4z M147.76,109.933v51.2c0,28.16,23.04,51.2,51.2,51.2s51.2-23.04,51.2-51.2v-51.2
		H147.76z"/>
	<path style="fill:#D0E8F9;" d="M437.893,220.867L437.893,220.867c-33.28,0-59.733-26.453-59.733-59.733V101.4h118.613
		c0.853,0,0.853,0,0.853,0.853v58.88C497.627,194.413,471.173,220.867,437.893,220.867L437.893,220.867z"/>
	<g>
		<path style="fill:#324A5E;" d="M437.893,229.4c-37.547,0-68.267-30.72-68.267-68.267V92.867h127.147
			c5.12,0,9.387,4.267,9.387,9.387v58.88C506.16,198.68,475.44,229.4,437.893,229.4z M386.693,109.933v51.2
			c0,28.16,23.04,51.2,51.2,51.2c28.16,0,51.2-23.04,51.2-51.2v-51.2H386.693z"/>
		<path style="fill:#324A5E;" d="M62.427,50.2c0,5.12-3.413,8.533-8.533,8.533S45.36,54.467,45.36,50.2s3.413-8.533,8.533-8.533
			S62.427,45.08,62.427,50.2"/>
		<path style="fill:#324A5E;" d="M113.627,50.2c0,5.12-3.413,8.533-8.533,8.533S96.56,55.32,96.56,50.2s3.413-8.533,8.533-8.533
			S113.627,45.08,113.627,50.2"/>
		<path style="fill:#324A5E;" d="M88.027,24.6c0,5.12-3.413,8.533-8.533,8.533S70.96,28.867,70.96,24.6s3.413-8.533,8.533-8.533
			S88.027,19.48,88.027,24.6"/>
		<path style="fill:#324A5E;" d="M139.227,24.6c0,5.12-3.413,8.533-8.533,8.533c-5.12,0-8.533-3.413-8.533-8.533
			s3.413-8.533,8.533-8.533C135.813,16.067,139.227,19.48,139.227,24.6"/>
		<path style="fill:#324A5E;" d="M88.027,75.8c0,5.12-3.413,8.533-8.533,8.533S70.96,80.067,70.96,75.8
			c0-4.267,3.413-8.533,8.533-8.533S88.027,70.68,88.027,75.8"/>
		<path style="fill:#324A5E;" d="M139.227,75.8c0,5.12-3.413,8.533-8.533,8.533c-5.12,0-8.533-3.413-8.533-8.533
			s3.413-8.533,8.533-8.533C135.813,67.267,139.227,70.68,139.227,75.8"/>
		<path style="fill:#324A5E;" d="M292.827,24.6c0,5.12-3.413,8.533-8.533,8.533s-8.533-3.413-8.533-8.533s3.413-8.533,8.533-8.533
			S292.827,19.48,292.827,24.6"/>
		<path style="fill:#324A5E;" d="M292.827,75.8c0,5.12-3.413,8.533-8.533,8.533s-8.533-3.413-8.533-8.533s3.413-8.533,8.533-8.533
			S292.827,70.68,292.827,75.8"/>
		<path style="fill:#324A5E;" d="M318.427,50.2c0,5.12-3.413,8.533-8.533,8.533c-5.12,0-8.533-3.413-8.533-8.533
			s3.413-8.533,8.533-8.533C315.013,41.667,318.427,45.08,318.427,50.2"/>
		<path style="fill:#324A5E;" d="M369.627,50.2c0,5.12-3.413,8.533-8.533,8.533s-8.533-3.413-8.533-8.533s3.413-8.533,8.533-8.533
			S369.627,45.08,369.627,50.2"/>
		<path style="fill:#324A5E;" d="M344.027,24.6c0,5.12-3.413,8.533-8.533,8.533s-8.533-3.413-8.533-8.533s3.413-8.533,8.533-8.533
			S344.027,19.48,344.027,24.6"/>
		<path style="fill:#324A5E;" d="M344.027,75.8c0,5.12-3.413,8.533-8.533,8.533s-8.533-3.413-8.533-8.533s3.413-8.533,8.533-8.533
			S344.027,70.68,344.027,75.8"/>
		<path style="fill:#324A5E;" d="M241.627,127c0,5.12-3.413,8.533-8.533,8.533c-5.12,0-8.533-3.413-8.533-8.533
			s3.413-8.533,8.533-8.533C238.213,118.467,241.627,121.88,241.627,127"/>
		<path style="fill:#324A5E;" d="M190.427,127c0,5.12-3.413,8.533-8.533,8.533c-5.12,0-8.533-3.413-8.533-8.533
			s3.413-8.533,8.533-8.533C187.013,118.467,190.427,121.88,190.427,127"/>
		<path style="fill:#324A5E;" d="M497.627,127c0,5.12-3.413,8.533-8.533,8.533s-8.533-3.413-8.533-8.533s3.413-8.533,8.533-8.533
			S497.627,121.88,497.627,127"/>
		<path style="fill:#324A5E;" d="M446.427,127c0,5.12-3.413,8.533-8.533,8.533c-5.12,0-8.533-3.413-8.533-8.533
			s3.413-8.533,8.533-8.533C443.013,118.467,446.427,121.88,446.427,127"/>
		<path style="fill:#324A5E;" d="M395.227,127c0,5.12-3.413,8.533-8.533,8.533s-8.533-3.413-8.533-8.533s3.413-8.533,8.533-8.533
			S395.227,121.88,395.227,127"/>
		<path style="fill:#324A5E;" d="M216.027,152.6c0,5.12-3.413,8.533-8.533,8.533c-5.12,0-8.533-3.413-8.533-8.533
			c0-5.12,3.413-8.533,8.533-8.533C212.613,144.067,216.027,147.48,216.027,152.6"/>
		<path style="fill:#324A5E;" d="M241.627,178.2c0,5.12-3.413,8.533-8.533,8.533c-5.12,0-8.533-3.413-8.533-8.533
			c0-5.12,3.413-8.533,8.533-8.533C238.213,169.667,241.627,173.08,241.627,178.2"/>
		<path style="fill:#324A5E;" d="M164.827,152.6c0,5.12-3.413,8.533-8.533,8.533c-5.12,0-8.533-3.413-8.533-8.533
			c0-5.12,3.413-8.533,8.533-8.533C161.413,144.067,164.827,147.48,164.827,152.6"/>
		<path style="fill:#324A5E;" d="M190.427,178.2c0,5.12-3.413,8.533-8.533,8.533c-5.12,0-8.533-3.413-8.533-8.533
			c0-5.12,3.413-8.533,8.533-8.533C187.013,169.667,190.427,173.08,190.427,178.2"/>
		<path style="fill:#324A5E;" d="M472.027,152.6c0,5.12-3.413,8.533-8.533,8.533c-5.12,0-8.533-3.413-8.533-8.533
			c0-5.12,3.413-8.533,8.533-8.533C468.613,144.067,472.027,147.48,472.027,152.6"/>
		<path style="fill:#324A5E;" d="M497.627,178.2c0,5.12-3.413,8.533-8.533,8.533s-8.533-3.413-8.533-8.533
			c0-5.12,3.413-8.533,8.533-8.533S497.627,173.08,497.627,178.2"/>
		<path style="fill:#324A5E;" d="M420.827,152.6c0,5.12-3.413,8.533-8.533,8.533c-5.12,0-8.533-3.413-8.533-8.533
			c0-5.12,3.413-8.533,8.533-8.533C417.413,144.067,420.827,147.48,420.827,152.6"/>
		<path style="fill:#324A5E;" d="M446.427,178.2c0,5.12-3.413,8.533-8.533,8.533c-5.12,0-8.533-3.413-8.533-8.533
			c0-5.12,3.413-8.533,8.533-8.533C443.013,169.667,446.427,173.08,446.427,178.2"/>
		<path style="fill:#324A5E;" d="M216.027,203.8c0,5.12-3.413,8.533-8.533,8.533c-5.12,0-8.533-3.413-8.533-8.533
			c0-5.12,3.413-8.533,8.533-8.533C212.613,195.267,216.027,198.68,216.027,203.8"/>
		<path style="fill:#324A5E;" d="M472.027,203.8c0,5.12-3.413,8.533-8.533,8.533c-5.12,0-8.533-3.413-8.533-8.533
			c0-5.12,3.413-8.533,8.533-8.533C468.613,195.267,472.027,198.68,472.027,203.8"/>
		<path style="fill:#324A5E;" d="M420.827,203.8c0,5.12-3.413,8.533-8.533,8.533c-5.12,0-8.533-3.413-8.533-8.533
			c0-5.12,3.413-8.533,8.533-8.533C417.413,195.267,420.827,198.68,420.827,203.8"/>
		<path style="fill:#324A5E;" d="M395.227,178.2c0,5.12-3.413,8.533-8.533,8.533s-8.533-3.413-8.533-8.533
			c0-5.12,3.413-8.533,8.533-8.533S395.227,173.08,395.227,178.2"/>
	</g>
	<polygon style="fill:#FFFFFF;" points="258.693,101.4 139.227,101.4 156.293,7.533 258.693,7.533 	"/>
	<path style="fill:#324A5E;" d="M267.227,109.933h-138.24L149.467-1h117.76V109.933z M149.467,92.867H250.16v-76.8h-87.04
		L149.467,92.867z"/>
	<path style="fill:#FFFFFF;" d="M494.213,101.4H378.16L361.093,7.533h76.8c10.24,0,19.627,5.973,23.893,15.36l34.987,75.093
		C497.627,99.693,495.92,101.4,494.213,101.4L494.213,101.4z"/>
	<path style="fill:#324A5E;" d="M494.213,109.933h-122.88L350.853-1h87.04c13.653,0,26.453,7.68,31.573,20.48l34.987,76.8
		c0.853,3.413,0,6.827-1.707,9.387C501.04,108.227,497.627,109.933,494.213,109.933z M384.987,92.867h99.84l-30.72-66.56
		c-2.56-5.973-9.387-10.24-16.213-10.24h-66.56L384.987,92.867z"/>
	<path style="fill:#FFFFFF;" d="M79.493,220.867L79.493,220.867c-33.28,0-59.733-26.453-59.733-59.733V103.96
		c0-1.707,0.853-2.56,2.56-2.56h116.907v59.733C139.227,194.413,112.773,220.867,79.493,220.867L79.493,220.867z"/>
	<path style="fill:#324A5E;" d="M79.493,229.4c-37.547,0-68.267-30.72-68.267-68.267V103.96c0-5.973,5.12-11.093,11.093-11.093
		h125.44v68.267C147.76,198.68,117.04,229.4,79.493,229.4z M28.293,109.933v51.2c0,28.16,23.04,51.2,51.2,51.2s51.2-23.04,51.2-51.2
		v-51.2H28.293z"/>
	<path style="fill:#FFFFFF;" d="M318.427,220.867L318.427,220.867c-33.28,0-59.733-26.453-59.733-59.733V101.4H378.16v59.733
		C378.16,194.413,351.707,220.867,318.427,220.867L318.427,220.867z"/>
	<path style="fill:#324A5E;" d="M318.427,229.4c-37.547,0-68.267-30.72-68.267-68.267V92.867h136.533v68.267
		C386.693,198.68,355.973,229.4,318.427,229.4z M267.227,109.933v51.2c0,28.16,23.04,51.2,51.2,51.2c28.16,0,51.2-23.04,51.2-51.2
		v-51.2H267.227z"/>
	<polygon style="fill:#D0E8F9;" points="318.427,255 454.96,255 454.96,502.467 318.427,502.467 	"/>
	<g>
		<path style="fill:#324A5E;" d="M463.493,511h-153.6V246.467h153.6V511z M326.96,493.933h119.467v-230.4H326.96V493.933z"/>
		<path style="fill:#324A5E;" d="M156.293,417.133c-2.56,0-4.267-0.853-5.973-2.56c-3.413-3.413-3.413-8.533,0-11.947l76.8-76.8
			c3.413-3.413,8.533-3.413,11.947,0c3.413,3.413,3.413,8.533,0,11.947l-76.8,76.8C160.56,416.28,158.853,417.133,156.293,417.133z
			 M420.827,408.6c-5.12,0-8.533-3.413-8.533-8.533v-25.6c0-5.12,3.413-8.533,8.533-8.533s8.533,3.413,8.533,8.533v25.6
			C429.36,405.187,425.947,408.6,420.827,408.6z M156.293,374.467c-2.56,0-4.267-0.853-5.973-2.56
			c-3.413-3.413-3.413-8.533,0-11.947l17.067-17.067c3.413-3.413,8.533-3.413,11.947,0c3.413,3.413,3.413,8.533,0,11.947
			l-17.067,17.067C160.56,373.613,158.853,374.467,156.293,374.467z M156.293,331.8c-2.56,0-4.267-0.853-5.973-2.56
			c-3.413-3.413-3.413-8.533,0-11.947l34.133-34.133c3.413-3.413,8.533-3.413,11.947,0s3.413,8.533,0,11.947l-34.133,34.133
			C160.56,330.947,158.853,331.8,156.293,331.8z M207.493,323.267c-2.56,0-4.267-0.853-5.973-2.56
			c-3.413-3.413-3.413-8.533,0-11.947l25.6-25.6c3.413-3.413,8.533-3.413,11.947,0s3.413,8.533,0,11.947l-25.6,25.6
			C211.76,322.413,210.053,323.267,207.493,323.267z"/>
	</g>
	<path style="fill:#D0E8F9;" d="M81.2,320.707c2.56-6.827,4.267-13.653,3.413-20.48c-0.853-3.413-1.707-5.973-4.267-8.533
		c-3.413-4.267-4.267-9.387-3.413-14.507s0-10.24-1.707-14.507c-4.267-8.533-12.8-12.8-20.48-13.653
		c-5.973-0.853-12.8,0-17.067,4.267l-5.12,4.267c-5.973,2.56-10.24,9.387-11.947,16.213c-0.853,4.267-0.853,8.533,0,11.947
		c1.707,5.973,0,11.947-2.56,16.213c-6.827,10.24-9.387,25.6-3.413,37.547c0.853,1.707,1.707,3.413,2.56,4.267
		c3.413,5.12,4.267,11.093,2.56,17.067c0,0.853,0,2.56,0,3.413c-0.853,6.827,0,12.8,1.707,18.773c1.707,5.973,2.56,12.8,7.68,17.067
		c5.973,5.12,15.36,3.413,22.187,0c10.24-5.12,19.627-13.653,23.04-25.6c1.707-6.827,1.707-14.507-0.853-21.333
		c-2.56-6.827-2.56-14.507,0.853-19.627C76.933,329.24,79.493,324.973,81.2,320.707L81.2,320.707z"/>
	<path style="fill:#324A5E;" d="M38.533,412.013c-5.973,0-11.093-1.707-14.507-5.12c-6.827-5.973-9.387-15.36-10.24-22.187
		c-0.853-5.973-2.56-13.653-1.707-21.333c0-1.707,0.853-3.413,0.853-5.12c0.853-3.413,0-6.827-1.707-9.387
		c-1.707-1.707-2.56-4.267-3.413-5.973c-5.973-14.507-4.267-32.427,4.267-46.08c1.707-2.56,2.56-5.973,1.707-9.387
		c-2.56-4.267-2.56-10.24-1.707-15.36c1.707-9.387,7.68-17.067,15.36-21.333l4.267-4.267c5.12-5.12,13.653-7.68,23.893-5.973
		c11.947,1.707,22.187,8.533,26.453,17.92c3.413,5.973,4.267,13.653,2.56,20.48c-0.853,2.56,0,5.12,1.707,7.68
		c3.413,2.56,5.12,6.827,5.973,11.093c1.707,7.68,0,16.213-3.413,25.6c-2.56,5.12-5.12,10.24-7.68,14.507
		c-1.707,2.56-2.56,7.68,0,11.093c3.413,8.533,4.267,18.773,1.707,27.307c-3.413,12.8-13.653,23.893-27.307,30.72
		C49.627,410.307,43.653,412.013,38.533,412.013z M50.48,256.707c-2.56,0-5.12,0.853-6.827,2.56l-7.68,5.973
		c-3.413,1.707-5.973,5.973-6.827,10.24c-0.853,2.56-0.853,5.12,0,7.68c2.56,7.68,0.853,16.213-4.267,23.893
		c-5.973,8.533-6.827,20.48-3.413,29.013c0,0.853,0.853,1.707,1.707,2.56c5.12,6.827,6.827,15.36,5.12,23.893
		c0,0.853,0,1.707-0.853,2.56c-0.853,5.12,0.853,11.093,1.707,16.213c0.853,4.267,1.707,10.24,5.12,12.8
		c2.56,2.56,8.533,0.853,12.8-1.707c5.973-2.56,15.36-9.387,18.773-20.48c1.707-5.12,0.853-11.093-0.853-15.36
		c-4.267-9.387-3.413-20.48,2.56-28.16c1.707-2.56,4.267-5.973,5.973-10.24l0,0c2.56-6.827,3.413-11.947,2.56-16.213
		c0-1.707-0.853-3.413-1.707-4.267c-5.12-5.973-6.827-14.507-5.12-22.187c0.853-3.413,0-6.827-0.853-8.533
		c-2.56-5.12-7.68-8.533-14.507-9.387C52.187,256.707,51.333,256.707,50.48,256.707z"/>
	<polygon style="fill:#D0E8F9;" points="70.96,502.467 19.76,502.467 11.227,451.267 79.493,451.267 	"/>
	<g>
		<path style="fill:#324A5E;" d="M77.787,511H12.933L1.84,442.733h87.893L77.787,511z M26.587,493.933H63.28l5.973-34.133H21.467
			L26.587,493.933z"/>
			<!-- 324A5E желтый -->
			<!-- 324A5E темно-синий с корзины -->
			<!-- 324A5E старый синий-->
		<path style="fill:#324A5E;" d="M292.827,459.8H79.493v-17.067H275.76v-179.2H84.613c1.707,5.12,1.707,10.24,0.853,15.36
			c-0.853,2.56,0,5.12,1.707,7.68c2.56,2.56,4.267,6.827,5.12,11.093c1.707,7.68,0,16.213-3.413,25.6
			c-2.56,5.12-5.12,10.24-7.68,14.507c-1.707,2.56-2.56,7.68,0,11.093c3.413,8.533,4.267,18.773,1.707,27.307
			c-2.56,8.533-7.68,15.36-14.507,22.187l-11.093-12.8c5.12-4.267,7.68-8.533,9.387-14.507c1.707-5.12,0.853-11.093-0.853-15.36
			c-4.267-9.387-3.413-20.48,2.56-28.16c1.707-2.56,4.267-5.973,5.973-10.24c2.56-6.827,3.413-11.947,2.56-16.213
			c0-1.707-0.853-3.413-1.707-4.267c-5.12-5.973-6.827-14.507-5.12-22.187c0.853-3.413,0-6.827-0.853-8.533s-1.707-2.56-4.267-4.267
			l-19.627-15.36h247.467V459.8z M53.893,451.267H36.827v-51.2h17.067V451.267z"/>
	</g>
</g>
<g>
</g>
<g>
</g>
<g>
</g>
<g>
</g>
<g>
</g>
<g>
</g>
<g>
</g>
<g>
</g>
<g>
</g>
<g>
</g>
<g>
</g>
<g>
</g>
<g>
</g>
<g>
</g>
<g>
</g>
</svg>
