<?xml version="1.0" encoding="utf-8"?><!-- Uploaded to: SVG Repo, www.svgrepo.com, Generator: SVG Repo Mixer Tools -->
<svg fill="#000000" width="800px" height="800px" viewBox="0 0 24 24" id="cursor-left" data-name="Flat Line" xmlns="http://www.w3.org/2000/svg" class="icon flat-line"><path id="secondary" d="M20.79,6.84,17.37,12l3.42,5.16a1.14,1.14,0,0,1-1.23,1.77l-15.92-6a1,1,0,0,1,0-1.88l15.92-6A1.14,1.14,0,0,1,20.79,6.84Z" style="fill: rgb(44, 169, 188); stroke-width: 2;"></path><path id="primary" d="M20.79,6.84,17.37,12l3.42,5.16a1.14,1.14,0,0,1-1.23,1.77l-15.92-6a1,1,0,0,1,0-1.88l15.92-6A1.14,1.14,0,0,1,20.79,6.84Z" style="fill: none; stroke: rgb(0, 0, 0); stroke-linecap: round; stroke-linejoin: round; stroke-width: 2;"></path></svg>